2.8Hzlow3min_grf.mot
version=1
nRows=30
nColumns 19
inDegrees=yes
endheader
time	1_ground_force_vx	1_ground_force_vy	1_ground_force_vz	1_ground_force_px	1_ground_force_py	1_ground_force_pz	1_ground_torque_x	1_ground_torque_y	1_ground_torque_z	2_ground_force_vx	2_ground_force_vy	2_ground_force_vz	2_ground_force_px	2_ground_force_py	2_ground_force_pz	2_ground_torque_x	2_ground_torque_y	2_ground_torque_z
            1.253500	           -0.180189	           -5.592007	            0.847756	           -0.233013	            0.005581	           -0.255695	           -0.672798	           -0.053952	           -0.400941	            0.195149	           -2.207262	           -0.524174	           -0.232311	            0.006130	           -0.833667	           -0.394534	           -0.001088	           -0.094083
            1.254000	           -0.088455	           -5.231654	            0.894930	           -0.233013	            0.005581	           -0.255695	           -0.674971	            0.177096	           -0.377251	            0.235229	           -0.364606	           -0.799191	           -0.232311	            0.006130	           -0.833667	           -0.394440	           -0.029379	           -0.113035
            1.254500	           -0.180447	           -6.672814	            0.659694	           -0.233013	            0.005581	           -0.255695	           -0.682660	            0.342700	           -0.211197	            0.381240	           -1.838456	           -0.476011	           -0.232311	            0.006130	           -0.833667	           -0.431857	           -0.067460	           -0.075453
            1.255000	           -0.180758	           -5.591024	            0.618476	           -0.233013	            0.005581	           -0.255695	           -0.606620	            0.241600	           -0.343444	            0.148902	           -2.391078	           -0.665595	           -0.232311	            0.006130	           -0.833667	           -0.319179	           -0.057600	           -0.075467
            1.255500	           -0.226439	           -5.230895	            0.711848	           -0.233013	            0.005581	           -0.255695	           -0.629256	           -0.026884	           -0.252516	            0.146887	           -1.838465	           -0.710552	           -0.232311	            0.006130	           -0.833667	           -0.469496	           -0.048690	           -0.075370
            1.256000	           -0.134624	           -4.690473	            0.805651	           -0.233013	            0.005581	           -0.255695	           -0.596109	           -0.239108	           -0.324811	            0.240005	           -1.654648	           -0.522222	           -0.232311	            0.006130	           -0.833667	           -0.394185	           -0.086499	           -0.000136
            1.256500	           -0.546768	           -6.493406	            0.844801	           -0.233013	            0.005581	           -0.255695	           -0.578325	           -0.192834	           -0.398579	            0.195108	           -2.206927	           -0.618030	           -0.232311	            0.006130	           -0.833667	           -0.394255	           -0.058409	            0.075366
            1.257000	           -0.409206	           -6.673645	            0.843687	           -0.233013	            0.005581	           -0.255695	           -0.728185	            0.065612	           -0.297238	            0.142879	           -0.733408	           -0.753538	           -0.232311	            0.006130	           -0.833667	           -0.337922	           -0.067188	           -0.056643
            1.257500	            0.002875	           -5.771647	            0.708960	           -0.233013	            0.005581	           -0.255695	           -0.478814	            0.296850	           -0.260507	            0.008414	           -2.392087	           -0.524751	           -0.232311	            0.006130	           -0.833667	           -0.450694	           -0.048757	           -0.037677
            1.258000	           -0.181132	           -5.410168	            0.481681	           -0.233013	            0.005581	           -0.255695	           -0.675701	            0.370506	           -0.229938	            0.051858	           -1.470507	           -0.709198	           -0.232311	            0.006130	           -0.833667	           -0.319222	           -0.048080	           -0.094284
            1.258500	            0.049011	           -6.132563	            0.799012	           -0.233013	            0.005581	           -0.255695	           -0.595330	            0.167847	           -0.352794	            0.005009	           -1.470676	           -0.709178	           -0.232311	            0.006130	           -0.833667	           -0.337973	           -0.057601	           -0.094310
            1.259000	           -0.134492	           -5.411536	            0.802559	           -0.233013	            0.005581	           -0.255695	           -0.539164	           -0.119255	           -0.249220	           -0.131492	           -2.576576	           -0.572276	           -0.232311	            0.006130	           -0.833667	           -0.375475	           -0.076642	           -0.094361
            1.259500	           -0.455231	           -5.051460	            0.896613	           -0.233013	            0.005581	           -0.255695	           -0.562174	           -0.294867	           -0.301208	            0.193635	           -1.837459	           -0.945212	           -0.232311	            0.006130	           -0.833667	           -0.450516	           -0.096088	           -0.018996
            1.260000	           -0.271989	           -5.591828	            0.802127	           -0.233013	            0.005581	           -0.255695	           -0.670732	           -0.202051	           -0.367895	           -0.087300	           -1.839813	           -0.569668	           -0.232311	            0.006130	           -0.833667	           -0.413073	           -0.058208	           -0.000027
            1.260500	           -0.271776	           -6.132822	            0.845664	           -0.233013	            0.005581	           -0.255695	           -0.653385	            0.074853	           -0.272741	            0.099332	           -1.654151	           -0.803731	           -0.232311	            0.006130	           -0.833667	           -0.319283	           -0.020058	            0.000068
            1.261000	           -0.455214	           -5.772326	            0.847665	           -0.233013	            0.005581	           -0.255695	           -0.559963	            0.333844	           -0.336088	            0.332958	           -1.469492	           -0.709317	           -0.232311	            0.006130	           -0.833667	           -0.375604	           -0.038898	           -0.075376
            1.261500	           -0.134475	           -6.132402	            0.753611	           -0.233013	            0.005581	           -0.255695	           -0.593284	            0.333901	           -0.303511	            0.146887	           -1.838465	           -0.710552	           -0.232311	            0.006130	           -0.833667	           -0.469480	           -0.048825	           -0.037669
            1.262000	           -0.042920	           -5.411321	            0.756475	           -0.233013	            0.005581	           -0.255695	           -0.593686	            0.047398	           -0.300855	            0.375799	           -0.364265	           -0.752323	           -0.232311	            0.006130	           -0.833667	           -0.732629	           -0.002645	            0.000312
            1.262500	            0.003558	           -5.772827	            0.984095	           -0.233013	            0.005581	           -0.255695	           -0.528237	           -0.174160	           -0.356394	            0.604547	            1.111273	           -1.169519	           -0.232311	            0.006130	           -0.833667	           -0.714047	            0.044955	           -0.074929
            1.263000	           -0.088536	           -5.411723	            0.848301	           -0.233013	            0.005581	           -0.255695	           -0.597354	           -0.285706	           -0.229036	            0.745076	            1.111948	           -1.216507	           -0.232311	            0.006130	           -0.833667	           -0.995965	            0.090932	            0.000761
            1.263500	           -0.180171	           -6.312873	            0.798808	           -0.233013	            0.005581	           -0.255695	           -0.651177	           -0.110135	           -0.232027	            1.018118	            3.323412	           -1.396454	           -0.232311	            0.006130	           -0.833667	           -1.146138	            0.071148	            0.095008
            1.264000	           -0.409631	           -5.591658	            0.756613	           -0.233013	            0.005581	           -0.255695	           -0.574630	            0.194724	           -0.221911	            1.057760	            5.348376	           -1.154606	           -0.232311	            0.006130	           -0.833667	           -1.578221	            0.097274	            0.283795
            1.264500	           -0.042429	           -6.853840	            0.842004	           -0.233013	            0.005581	           -0.255695	           -0.540322	            0.389256	           -0.261874	            0.441380	            7.371976	           -1.194048	           -0.232311	            0.006130	           -0.833667	           -1.634558	            0.078568	            0.170650
            1.265000	           -0.226358	           -5.050825	            0.758476	           -0.233013	            0.005581	           -0.255695	           -0.537564	            0.250518	           -0.270359	            0.023718	            6.265564	           -1.197811	           -0.232311	            0.006130	           -0.833667	           -1.652891	           -0.053636	            0.113636
            1.265500	           -0.134523	           -6.492737	            0.706209	           -0.233013	            0.005581	           -0.255695	           -0.647494	            0.010612	           -0.361144	           -0.583878	            5.894064	           -0.917297	           -0.232311	            0.006130	           -0.833667	           -1.633722	           -0.157615	            0.132107
            1.266000	           -0.363546	           -5.051442	            0.896386	           -0.233013	            0.005581	           -0.255695	           -0.637316	           -0.202325	           -0.315513	           -0.263095	            7.919708	           -0.581712	           -0.232311	            0.006130	           -0.833667	           -2.047164	           -0.093543	            0.302171
            1.266500	            0.049059	           -5.772228	            0.846414	           -0.233013	            0.005581	           -0.255695	           -0.427982	           -0.230472	           -0.148151	            0.275280	           14.550241	           -0.323657	           -0.203671	            0.005436	           -0.610257	            0.000378	            0.019997	           -0.000445
            1.267000	            0.461038	           -3.067967	            0.811128	           -0.233013	            0.005581	           -0.255695	           -0.052200	           -0.156425	           -0.093673	            0.720914	           20.815151	           -0.911581	           -0.215482	            0.005468	           -0.631107	            0.006611	            0.190883	           -0.008360
            1.267500	            0.460413	            0.357081	            0.825815	           -0.233013	            0.005581	           -0.255695	            0.340342	            0.009066	            0.131517	            1.255308	           28.371781	           -2.151940	           -0.230145	            0.005467	           -0.645751	            0.011923	            0.269468	           -0.020439
            1.268000	            1.239847	            5.402901	            1.258227	           -0.233013	            0.005581	           -0.255695	            1.165221	           -0.038150	            0.519482	            1.644624	           37.215938	           -3.106070	           -0.224570	            0.005500	           -0.649311	            0.001109	            0.025104	           -0.002095
